<?xml version="1.0" encoding="utf-8"?>
<!-- Generator: Adobe Illustrator 23.0.1, SVG Export Plug-In . SVG Version: 6.00 Build 0)  -->
<svg version="1.1" id="Слой_1" xmlns="http://www.w3.org/2000/svg" xmlns:xlink="http://www.w3.org/1999/xlink" x="0px" y="0px"
	 viewBox="0 0 48 48" style="enable-background:new 0 0 48 48;" xml:space="preserve">
<style type="text/css">
	.st0{fill:none;}
	.st1{fill:#AAAAAA;}
</style>
<path class="st0" d="M0,0h48v48H0V0z"/>
<path class="st1" d="M24,4C13,4,4,13,4,24s9,20,20,20s20-9,20-20S35,4,24,4z M14.1,36.6C15,34.8,20.2,33,24,33s9,1.8,9.9,3.6
	C31.1,38.7,27.7,40,24,40S16.9,38.7,14.1,36.6z M36.7,33.7C33.9,30.2,26.9,29,24,29s-9.9,1.2-12.7,4.7C9.2,31,8,27.6,8,24
	c0-8.8,7.2-16,16-16s16,7.2,16,16C40,27.6,38.8,31,36.7,33.7z M24,12c-3.9,0-7,3.1-7,7s3.1,7,7,7s7-3.1,7-7S27.9,12,24,12z M24,22
	c-1.7,0-3-1.3-3-3s1.3-3,3-3s3,1.3,3,3S25.7,22,24,22z"/>
</svg>
